<?xml version="1.0" standalone="no"?>
<!DOCTYPE svg PUBLIC "-//W3C//DTD SVG 20010904//EN"
 "http://www.w3.org/TR/2001/REC-SVG-20010904/DTD/svg10.dtd">
<svg version="1.0" xmlns="http://www.w3.org/2000/svg"
 width="700.000000pt" height="700.000000pt" viewBox="0 0 700.000000 700.000000"
 preserveAspectRatio="xMidYMid meet">
<metadata>
Created by potrace 1.14, written by Peter Selinger 2001-2017
</metadata>
<g transform="translate(0.000000,700.000000) scale(0.100000,-0.100000)"
fill="#000000" stroke="none">
<path d="M565 6980 c-252 -67 -444 -245 -532 -495 l-28 -80 0 -2605 c0 -2514
1 -2607 19 -2665 77 -248 259 -432 511 -517 l70 -23 1459 -3 1458 -2 77 -68
c433 -387 1010 -573 1579 -511 792 86 1470 631 1717 1381 174 531 134 1072
-117 1568 -85 169 -170 295 -290 431 l-78 88 -2 1458 -3 1458 -23 70 c-85 251
-254 421 -507 509 l-60 21 -2590 2 c-2497 2 -2593 1 -2660 -17z m1108 -864
c39 -16 82 -61 96 -99 7 -17 11 -113 11 -233 l0 -204 203 0 c226 0 258 -8 310
-69 73 -87 47 -220 -53 -271 -35 -18 -60 -20 -250 -20 l-210 0 0 -210 c0 -190
-2 -215 -20 -250 -36 -71 -124 -110 -201 -90 -53 15 -116 72 -129 118 -5 21
-10 126 -10 235 l0 197 -205 0 c-230 0 -250 4 -302 63 -77 88 -46 229 61 278
36 16 67 19 244 19 l202 0 0 203 c0 175 3 207 19 242 41 90 143 130 234 91z
m3905 -551 c75 -32 112 -86 112 -165 0 -69 -29 -123 -83 -155 l-44 -25 -603 0
-602 0 -40 22 c-52 30 -88 91 -88 151 0 82 33 135 105 168 37 17 78 19 623 19
504 0 588 -2 620 -15z m-4283 -2971 c17 -8 93 -77 170 -154 l139 -140 151 149
c165 164 193 181 275 162 115 -26 175 -154 121 -259 -11 -20 -81 -98 -155
-172 l-136 -134 139 -141 c76 -77 146 -155 156 -174 23 -46 17 -140 -12 -179
-27 -37 -78 -70 -120 -78 -73 -14 -108 8 -263 162 -80 79 -150 144 -155 144
-5 0 -74 -65 -155 -144 -157 -155 -191 -175 -269 -161 -109 19 -179 141 -140
242 6 15 75 93 155 173 79 80 144 150 144 155 0 5 -67 77 -149 160 -125 125
-150 156 -156 188 -19 101 33 186 133 218 32 10 86 3 127 -17z m4267 -64 c165
-46 180 -270 23 -341 -37 -17 -79 -19 -623 -19 -504 0 -588 2 -620 15 -75 32
-115 90 -115 170 0 55 18 98 56 133 54 51 61 51 672 52 363 0 584 -4 607 -10z
m34 -622 c124 -68 133 -239 17 -318 l-37 -25 -580 -3 c-320 -2 -600 0 -624 3
-44 7 -102 48 -124 89 -55 103 3 239 114 264 26 6 270 10 623 9 527 -2 583 -4
611 -19z"/>
</g>
</svg>
